<?xml version="1.0" encoding="UTF-8" standalone="no"?>
<!DOCTYPE svg PUBLIC "-//W3C//DTD SVG 1.1//EN" "http://www.w3.org/Graphics/SVG/1.1/DTD/svg11.dtd">
<svg width="100%" height="100%" viewBox="0 0 250 204" version="1.1" xmlns="http://www.w3.org/2000/svg" xmlns:xlink="http://www.w3.org/1999/xlink" xml:space="preserve" xmlns:serif="http://www.serif.com/" style="fill-rule:evenodd;clip-rule:evenodd;stroke-linejoin:round;stroke-miterlimit:2;">
    <g transform="matrix(1,0,0,1,-75,-98.9994)">
        <path id="Logo---FIXED" serif:id="Logo — FIXED" d="M153.623,302.001C247.967,302.001 299.559,223.908 299.559,156.192C299.559,153.973 299.514,151.764 299.412,149.567C309.426,142.333 318.132,133.308 325,123.032C315.809,127.111 305.919,129.861 295.545,131.1C306.134,124.757 314.264,114.718 318.098,102.752C308.186,108.622 297.213,112.892 285.53,115.191C276.17,105.23 262.841,98.999 248.091,98.999C219.763,98.999 196.792,121.951 196.792,150.243C196.792,154.265 197.243,158.175 198.122,161.927C155.495,159.786 117.695,139.393 92.4,108.385C87.991,115.957 85.454,124.757 85.454,134.142C85.454,151.922 94.509,167.617 108.278,176.799C99.866,176.541 91.961,174.231 85.048,170.389C85.036,170.603 85.036,170.817 85.036,171.042C85.036,195.864 102.719,216.584 126.186,221.283C121.879,222.454 117.345,223.086 112.665,223.086C109.361,223.086 106.147,222.759 103.023,222.161C109.553,242.521 128.487,257.338 150.939,257.755C133.381,271.501 111.267,279.692 87.235,279.692C83.097,279.692 79.015,279.456 75,278.982C97.701,293.517 124.653,302.001 153.623,302.001" style="fill:white;fill-rule:nonzero;"/>
    </g>
</svg>
